<svg xmlns="http://www.w3.org/2000/svg" viewBox="0 0 61.42 57.33"><defs><style>.cls-1{fill:#bf2026;}</style></defs><g id="Layer_2" data-name="Layer 2"><g id="Layer_1-2" data-name="Layer 1"><path class="cls-1" d="M42.57,19.45l-4.09,4.1H35.83v2h2.05v2.05h2V25L44,20.9v4.27L40.23,29l1.44,1.45L44,28.07v2.64h2V28.07l2.35,2.34L49.86,29l-3.79-3.79V20.9L50.16,25v2.65h2.05V25.59h2v-2H51.61l-4.09-4.1h4.27l3.79,3.8L57,21.8l-2.35-2.35h2.65V17.4H54.68L57,15.06l-1.45-1.45L51.79,17.4H47.52l4.09-4.09h2.65V11.26h-2v-2H50.16v2.65L46.07,16V11.69l3.79-3.8L48.42,6.44,46.07,8.79V6.14H44V8.79L41.67,6.44,40.23,7.89,44,11.69V16l-4.09-4.1V9.21h-2v2H35.83v2.05h2.65l4.09,4.09H38.3l-3.79-3.79-1.45,1.45,2.35,2.34H32.76v2.05h2.65L33.06,21.8l1.45,1.45,3.79-3.8Z"/><path class="cls-1" d="M61.42,18.43a16.38,16.38,0,1,0-31.56,6.14H5.12A5.12,5.12,0,0,0,0,29.69V52.21a5.12,5.12,0,0,0,5.12,5.12h45a5.12,5.12,0,0,0,5.12-5.12v-21a16.31,16.31,0,0,0,6.14-12.77ZM45,4.09A14.34,14.34,0,1,1,30.71,18.43,14.35,14.35,0,0,1,45,4.09ZM22.52,36.85H16.38v-1a1,1,0,0,0-1-1H9.21a1,1,0,0,0-1,1v1H2.05V32.76H22.52Zm-8.19,0v2H10.24v-2Zm-6.14,2v1a1,1,0,0,0,1,1h6.15a1,1,0,0,0,1-1v-1h6.14V43H2.05V38.9ZM22.52,45v4.1H2.05V45Zm2.05-18.42h6.14V55.28H24.57ZM32.76,45H38.9v1a1,1,0,0,0,1,1h6.14a1,1,0,0,0,1-1V45h6.14v4.1H32.76ZM41,45V43H45v2Zm6.14-2V42a1,1,0,0,0-1-1H39.93a1,1,0,0,0-1,1v1H32.76V38.9H53.23V43ZM32.76,29.25a16.76,16.76,0,0,0,1.46,1.46H32.76ZM5.12,26.62h17.4v4.09H2.05v-1a3.06,3.06,0,0,1,3.07-3.07ZM2.05,52.21v-1H22.52v4.09H5.12a3.06,3.06,0,0,1-3.07-3.07Zm48.11,3.07H32.76V51.19H53.23v1a3.06,3.06,0,0,1-3.07,3.07Zm3.07-18.43H32.76V32.76h4.36a16.35,16.35,0,0,0,16.11-.15Z"/><rect class="cls-1" x="26.62" y="34.81" width="2.05" height="12.28"/><path class="cls-1" d="M14.33,22.52V20.47h2v-2h-2V16.38H12.28v2.05h-2v2h2v2.05Z"/><path class="cls-1" d="M20.47,12.28h2.05v-2h2.05V8.19H22.52v-2H20.47V8.19h-2v2.05h2Z"/><path class="cls-1" d="M10.24,6.14h2v-2h2.05v-2H12.28V0h-2V2.05H8.19v2h2.05Z"/></g></g></svg>