<svg xmlns="http://www.w3.org/2000/svg" viewBox="0 0 64.96 59.87"><defs><style>.cls-1{fill:#bf2026;}</style></defs><g id="Layer_2" data-name="Layer 2"><g id="Layer_1-2" data-name="Layer 1"><path class="cls-1" d="M14.17,49.83a3,3,0,1,0,3,3,3,3,0,0,0-3-3Zm0,4.07a1.08,1.08,0,1,1,1.09-1.08,1.08,1.08,0,0,1-1.09,1.08Z"/><path class="cls-1" d="M60.93,41.45c-2.67-1.58-6.84-2.48-12.67-2.73L42,30.65a3,3,0,0,0-2.36-1.16h-1a2,2,0,0,0-2,2v7.19H26.31V37.56a4,4,0,0,0-4-4h-.07v-2.1a2,2,0,0,0-2-2h-2a2,2,0,0,0-2,2v3.12H9.09a5,5,0,0,0-4.94,4.14,5,5,0,0,0-4.15,5v7.12a5,5,0,0,0,5,5H7.78a7.06,7.06,0,0,0,12.78,0H47.45l0,0a7.06,7.06,0,0,0,12.76,0H62a3,3,0,0,0,3-3V48.75a7.74,7.74,0,0,0-4-7.3Zm-22.41-10a.06.06,0,0,1,.06-.06h1a1.06,1.06,0,0,1,.85.41l5.32,6.84H38.52V31.46Zm-16.28,4h.07a2.11,2.11,0,0,1,2.1,2.1v1.09H22.24Zm-4.06-4a.06.06,0,0,1,.06-.06h2a.07.07,0,0,1,.07.06v7.19H18.18Zm-9.09,5h7.18v2.17H6.12a3.12,3.12,0,0,1,3-2.17Zm-2,16.34A7.62,7.62,0,0,0,7.2,53.9H5A3.12,3.12,0,0,1,1.9,50.79V49.7H7.85a7,7,0,0,0-.73,3.12Zm48.93,4.65a5.15,5.15,0,1,1-4.43-9.3,5.21,5.21,0,0,1,1.67-.47,1,1,0,0,0-.2-1.9,7.07,7.07,0,0,0-6.22,8.1H21.14a6.38,6.38,0,0,0,.09-1.08,7,7,0,0,0-.95-3.53,1,1,0,0,0-1.3-.35,1,1,0,0,0-.35,1.31,5,5,0,0,1,.69,2.57A5.14,5.14,0,1,1,15.88,48a1,1,0,0,0,.64-1.8,7.2,7.2,0,0,0-2.35-.39,7,7,0,0,0-4.95,2H1.9V43.67A3.12,3.12,0,0,1,5,40.55H44.68c7.4,0,12.39.83,15.28,2.54a6.72,6.72,0,0,1,.94.64h-1a1,1,0,0,0,0,1.9h2.51A6.53,6.53,0,0,1,63,47.8H58.79a6.53,6.53,0,0,0-.95-.79.94.94,0,0,0-1.32.24,1,1,0,0,0,.24,1.33,5.15,5.15,0,0,1-.71,8.89Zm7-4.65A1.08,1.08,0,0,1,62,53.9H60.81a7,7,0,0,0-.6-4.11l-.05-.09h2.89Z"/><path class="cls-1" d="M44.17,47.8H23.83a.95.95,0,1,0,0,1.9H44.17a1,1,0,1,0,0-1.9Z"/><path class="cls-1" d="M53.84,49.83a3,3,0,1,0,3,3,3,3,0,0,0-3-3Zm0,4.07a1.08,1.08,0,1,1,1.08-1.08,1.08,1.08,0,0,1-1.08,1.08Z"/><path class="cls-1" d="M30.44,16.28c-1.23,0-2.09-.67-2.09-1.28a1,1,0,0,0-1.91,0,3.38,3.38,0,0,0,3,3.09v.16a1,1,0,0,0,1.91,0v-.16A3.38,3.38,0,0,0,34.45,15c0-2.47-2.31-3.28-3.69-3.76-2.07-.71-2.41-1.18-2.41-2,0-.6.86-1.27,2.09-1.27s2.1.67,2.1,1.27a1,1,0,1,0,1.91,0A3.39,3.39,0,0,0,31.4,6.19V6a1,1,0,0,0-1.91,0v.15a3.39,3.39,0,0,0-3,3.09c0,2.48,2.31,3.28,3.69,3.76,2.07.72,2.41,1.19,2.41,2,0,.61-.86,1.28-2.1,1.28Z"/><path class="cls-1" d="M29.49,24.24v6.4l-1.33-1.78A1,1,0,0,0,26.63,30l3.05,4.07a1,1,0,0,0,1.53,0l3-4.07a1,1,0,0,0-1.53-1.14L31.4,30.64v-6.4a12.14,12.14,0,1,0-1.91,0Zm1-22.34A10.24,10.24,0,1,1,20.21,12.14,10.25,10.25,0,0,1,30.45,1.9Z"/></g></g></svg>