<svg xmlns="http://www.w3.org/2000/svg" viewBox="0 0 61.42 57.33"><defs><style>.cls-1{fill:#bf2026;}</style></defs><g id="Layer_2" data-name="Layer 2"><g id="Layer_1-2" data-name="Layer 1"><path class="cls-1" d="M56.31,10.24h-1V7.17a1,1,0,0,0-1-1h-1V1a1,1,0,0,0-1-1H46.07a1,1,0,0,0-1,1V6.14H44a1,1,0,0,0-1,1v3.07H18.43V7.17a1,1,0,0,0-1-1h-1V1a1,1,0,0,0-1-1H9.21a1,1,0,0,0-1,1V6.14h-1a1,1,0,0,0-1,1v3.07h-1A5.12,5.12,0,0,0,0,15.36v8.19a1,1,0,0,0,1,1h1V56.31a1,1,0,0,0,1,1H58.35a1,1,0,0,0,1-1V24.57h1a1,1,0,0,0,1-1V15.36a5.11,5.11,0,0,0-5.11-5.12ZM47.09,2.05h4.1V6.14h-4.1ZM45,8.19h8.19v2.05H45ZM10.24,2.05h4.09V6.14H10.24ZM8.19,8.19h8.19v2.05H8.19ZM17.4,43H4.09V36.85H17.4ZM4.09,55.28V45H17.4v3.08a5.13,5.13,0,0,0,5.12,5.11H38.9A5.11,5.11,0,0,0,44,48.12V45H57.33V55.28Zm15.36-7.16V31.74a3.09,3.09,0,0,1,3.07-3.08H38.9A3.08,3.08,0,0,1,42,31.74V48.12a3.07,3.07,0,0,1-3.07,3.07H22.52a3.08,3.08,0,0,1-3.07-3.07ZM44,36.85H57.33V43H44Zm13.31-2H44V31.74a5.12,5.12,0,0,0-5.12-5.12H22.52a5.13,5.13,0,0,0-5.12,5.12v3.07H4.09V24.57H57.33Zm2.05-12.29H2.05V15.36a3.08,3.08,0,0,1,3.07-3.08H56.31a3.09,3.09,0,0,1,3.07,3.08Z"/><rect class="cls-1" x="9.21" y="16.38" width="6.14" height="2.05"/><path class="cls-1" d="M50.16,14.33h-2v2h-2v2.05h2v2h2v-2h2.05V16.38H50.16Z"/><path class="cls-1" d="M25.59,41h7.77l-7.47,7.47,1.45,1.44,9.21-9.21a1,1,0,0,0,.23-1.12,1,1,0,0,0-1-.63H28.06l7.47-7.46L34.08,30,24.87,39.2A1,1,0,0,0,25.59,41Z"/></g></g></svg>