<svg xmlns="http://www.w3.org/2000/svg" viewBox="0 0 81.18 52.26"><defs><style>.cls-1{fill:#bf2026;}</style></defs><g id="Layer_2" data-name="Layer 2"><g id="Layer_1-2" data-name="Layer 1"><path class="cls-1" d="M78.06,11.75H73.31a11.94,11.94,0,0,0-.87-1.35.9.9,0,0,0-.15-.19A12.92,12.92,0,0,0,62,5.12H57.08a1.19,1.19,0,1,0,0,2.38H62a10.49,10.49,0,0,1,6.61,2.33H52.19a1.68,1.68,0,0,0-1.45,2.52L59.81,28a4.34,4.34,0,0,0,2.53,2l.18.05a4.49,4.49,0,0,0,1,.13h9v2.65H70.52a2.63,2.63,0,0,0-2.63,2.62v3A2.63,2.63,0,0,0,70.52,41h2.06v3.5H66.12L46.55,10.82a2,2,0,0,0-1.71-1H6.34a1.88,1.88,0,0,0-1.88,1.88v8.7H2.38V7.5H51.56a1.19,1.19,0,0,0,0-2.38H24.66L21.83,1.44A3.7,3.7,0,0,0,18.92,0H8.8A3.12,3.12,0,0,0,5.69,3.11v2H2a2,2,0,0,0-2,2V44.91a2,2,0,0,0,2,2H7.48a8,8,0,0,0,15.05,0h4.73a1.19,1.19,0,1,0,0-2.38H23a2.18,2.18,0,0,0,0-.25A8,8,0,1,0,7,44.29a2.18,2.18,0,0,0,0,.25H2.38V22.79H50.75L63.37,44.54H57.25a2.18,2.18,0,0,0,0-.25,8,8,0,1,0-15.95,0v.25h-8.5a1.19,1.19,0,1,0,0,2.38h8.94a8,8,0,0,0,15.06,0H73a2,2,0,0,0,1.84-1.23,1.85,1.85,0,0,0,.16-.78V18.07a13.15,13.15,0,0,0-.61-3.94h3.71a.74.74,0,0,1,.74.74v3.56a2.13,2.13,0,0,1-.54,1.42l-.45.52a1.19,1.19,0,0,0,.9,2,1.2,1.2,0,0,0,.9-.41l.44-.51a4.52,4.52,0,0,0,1.13-3V14.87a3.12,3.12,0,0,0-3.12-3.12ZM72.58,38.66H70.52a.25.25,0,0,1-.25-.25v-3a.25.25,0,0,1,.25-.24h2.06ZM8.07,3.11a.73.73,0,0,1,.73-.73H18.92a1.28,1.28,0,0,1,1,.51l1.72,2.23H8.07ZM15,38.69a5.6,5.6,0,1,1-5.6,5.6,5.6,5.6,0,0,1,5.6-5.6ZM26.45,12.21h9.84v8.2H26.45Zm-2.38,8.2H14.23v-8.2h9.84ZM6.84,12.21h5v8.2h-5Zm31.83,8.2v-8.2h5.94l4.76,8.2ZM49.28,49.88a5.6,5.6,0,1,1,5.6-5.59,5.6,5.6,0,0,1-5.6,5.59Zm4.13-37.67h8.14v14ZM63.93,27.75V12.21H70.8a10.44,10.44,0,0,1,1.78,5.86v9.68Z"/><path class="cls-1" d="M15,47.91a3.63,3.63,0,1,0-3.63-3.62A3.63,3.63,0,0,0,15,47.91ZM15,43a1.25,1.25,0,1,1-1.25,1.25A1.25,1.25,0,0,1,15,43Z"/><path class="cls-1" d="M49.28,40.66a3.63,3.63,0,1,0,3.63,3.63,3.63,3.63,0,0,0-3.63-3.63Zm0,4.87a1.25,1.25,0,1,1,1.25-1.24,1.24,1.24,0,0,1-1.25,1.24Z"/></g></g></svg>