<svg xmlns="http://www.w3.org/2000/svg" viewBox="0 0 49.14 61.42"><defs><style>.cls-1{fill:#bf2026;}</style></defs><g id="Layer_2" data-name="Layer 2"><g id="Layer_1-2" data-name="Layer 1"><path class="cls-1" d="M42,18.43h4.1a3.08,3.08,0,0,0,3.07-3.07V3.07A3.08,3.08,0,0,0,46.07,0H42A3.08,3.08,0,0,0,38.9,3.07V8.19h-.6L32.46,2.35a1,1,0,0,0-.72-.3H17.4a1,1,0,0,0-.72.3L10.84,8.19h-.6V3.07A3.08,3.08,0,0,0,7.17,0H3.07A3.08,3.08,0,0,0,0,3.07V15.36a3.08,3.08,0,0,0,3.07,3.07h4.1a3.08,3.08,0,0,0,3.07-3.07V10.24h.6l3.49,3.49V49.14H10.24V46.07A3.07,3.07,0,0,0,7.17,43H3.07A3.07,3.07,0,0,0,0,46.07V58.35a3.07,3.07,0,0,0,3.07,3.07h4.1a3.07,3.07,0,0,0,3.07-3.07V55.28H20.48a5.11,5.11,0,0,0,8.18,0H38.9v3.07A3.07,3.07,0,0,0,42,61.42h4.1a3.07,3.07,0,0,0,3.07-3.07V46.07A3.07,3.07,0,0,0,46.07,43H42a3.07,3.07,0,0,0-3.07,3.07v3.07H34.81V13.73l3.49-3.49h.6v5.12A3.08,3.08,0,0,0,42,18.43Zm-1-4.1V12.28h1A1,1,0,0,0,42.7,12l1.74-1.75h2.65v2H44a1,1,0,0,0-.72.3l-1.75,1.75ZM44,8.19a1,1,0,0,0-.72.3l-1.75,1.75H41V8.19h1a1,1,0,0,0,.73-.3l1.74-1.75h2.65V8.19Zm2,8.19H42a1,1,0,0,0,.73-.3l1.74-1.75h2.65v1a1,1,0,0,1-1,1ZM42,2.05h4.1a1,1,0,0,1,1,1v1H44a1,1,0,0,0-.72.3L41.55,6.14H41V3.07a1,1,0,0,1,1-1Zm-24.14,2H31.31l4.1,4.1H13.73ZM7.59,14.33,5.84,12.58a1,1,0,0,0-.72-.3H2.05v-2H4.69L6.44,12a1,1,0,0,0,.73.29h1v2.05Zm0-4.09L5.84,8.49a1,1,0,0,0-.72-.3H2.05v-2H4.69L6.44,7.89a1,1,0,0,0,.73.3h1v2.05ZM3.07,2.05h4.1a1,1,0,0,1,1,1V6.14h-.6L5.84,4.39a1,1,0,0,0-.72-.3H2.05v-1a1,1,0,0,1,1-1Zm0,14.33a1,1,0,0,1-1-1v-1H4.69l1.75,1.75a1,1,0,0,0,.73.3Zm4.52,41L5.84,55.58a1,1,0,0,0-.72-.3H2.05V53.23H4.69L6.44,55a1,1,0,0,0,.73.3h1v2Zm0-4.1L5.84,51.49a1,1,0,0,0-.72-.3H2.05v-2H4.69l1.75,1.75a1,1,0,0,0,.73.3h1v2ZM3.07,45h4.1a1,1,0,0,1,1,1v3.07h-.6L5.84,47.39a1,1,0,0,0-.72-.3H2.05v-1a1,1,0,0,1,1-1Zm0,14.34a1,1,0,0,1-1-1v-1H4.69l1.75,1.75a1,1,0,0,0,.73.3ZM41,57.33v-2h1a1,1,0,0,0,.73-.3l1.74-1.75h2.65v2.05H44a1,1,0,0,0-.72.3l-1.75,1.75ZM44,51.19a1,1,0,0,0-.72.3l-1.75,1.74H41v-2h1a1,1,0,0,0,.73-.3l1.74-1.75h2.65v2Zm2,8.19H42a1,1,0,0,0,.73-.3l1.74-1.75h2.65v1a1,1,0,0,1-1,1ZM42,45h4.1a1,1,0,0,1,1,1v1H44a1,1,0,0,0-.72.3l-1.75,1.75H41V46.07a1,1,0,0,1,1-1ZM38.9,53.23H28.12a1,1,0,0,0-.89.52,3.08,3.08,0,0,1-5.32,0,1,1,0,0,0-.89-.52H10.24v-2H21a1,1,0,0,0,.89-.51,3.07,3.07,0,0,1,5.32,0,1,1,0,0,0,.89.51H38.9ZM33.06,12.58a1.06,1.06,0,0,0-.3.73V49.14h-2v-2a1,1,0,0,0-.3-.72l-1.75-1.75V43h1a1,1,0,0,0,1-1V35.83a1,1,0,0,0-1-1h-1V32.16l1.75-1.75a1,1,0,0,0,.3-.72V15.36a1,1,0,0,0-.3-.73l-2.05-2.05L26.92,14l1.74,1.75V29.26L26.92,31a1,1,0,0,0-.3.73v3.07h-1a1,1,0,0,0-1,1V42a1,1,0,0,0,1,1h1v2a1,1,0,0,0,.3.73l1.74,1.75v1.62h0a5.11,5.11,0,0,0-8.18,0h0V15.78L22.22,14l-1.45-1.45-2,2.05a1,1,0,0,0-.3.73V49.14H16.38V13.31a1.06,1.06,0,0,0-.3-.73l-2.35-2.34H35.41Zm-4.4,24.27V41h-2v-4.1Z"/></g></g></svg>