<svg xmlns="http://www.w3.org/2000/svg" viewBox="0 0 45.04 61.43"><defs><style>.cls-1{fill:#bf2026;}</style></defs><g id="Layer_2" data-name="Layer 2"><g id="Layer_1-2" data-name="Layer 1"><path class="cls-1" d="M24.57,47.52a6.15,6.15,0,0,0,3.69,5.63,1,1,0,0,0,1-.08,1,1,0,0,0,.46-.86V48.54a1,1,0,0,1,2,0v3.67a1,1,0,0,0,1.43.94,6.15,6.15,0,0,0,.61-10.95V27.46a6.15,6.15,0,0,0-.61-10.95,1,1,0,0,0-1.43.94v3.67a1,1,0,0,1-2,0V17.45a1,1,0,0,0-.46-.86,1,1,0,0,0-1-.08,6.14,6.14,0,0,0-.62,11V42.2a6.15,6.15,0,0,0-3.07,5.32Zm4.5-21.63a4.09,4.09,0,0,1-1.43-6.46v1.69a3.07,3.07,0,0,0,6.14,0V19.43a4.09,4.09,0,0,1-1.43,6.46,1,1,0,0,0-.61.94v16a1,1,0,0,0,.61.94,4.09,4.09,0,0,1,1.43,6.46V48.54a3.07,3.07,0,0,0-6.14,0v1.69a4.09,4.09,0,0,1,1.43-6.46,1,1,0,0,0,.62-.94v-16a1,1,0,0,0-.62-.94Z"/><path class="cls-1" d="M39.93,8.19h-3v-1A3.07,3.07,0,0,0,33.82,4.1H29a7.16,7.16,0,0,0-12.95,0H11.26A3.07,3.07,0,0,0,8.19,7.17v1H5.12A5.12,5.12,0,0,0,0,13.31v43a5.13,5.13,0,0,0,5.12,5.12H39.93A5.13,5.13,0,0,0,45,56.31v-43a5.11,5.11,0,0,0-5.11-5.12ZM11.26,14.33H38.9v41H6.14V14.33Zm-1-7.16a1,1,0,0,1,1-1h5.47a1,1,0,0,0,1-.68,5.12,5.12,0,0,1,9.65,0,1,1,0,0,0,1,.68h5.51a1,1,0,0,1,1,1v4.09a1,1,0,0,1-1,1H11.26a1,1,0,0,1-1-1ZM43,56.31a3.08,3.08,0,0,1-3.07,3.07H5.12a3.07,3.07,0,0,1-3.07-3.07v-43a3.06,3.06,0,0,1,3.07-3.07H8.19v1a3,3,0,0,0,.18,1H6.14a2.05,2.05,0,0,0-2,2v41a2.06,2.06,0,0,0,2.05,2H38.9a2.05,2.05,0,0,0,2.05-2V14.33a2,2,0,0,0-2.05-2H36.71a3,3,0,0,0,.18-1v-1h3A3.07,3.07,0,0,1,43,13.31Z"/><rect class="cls-1" x="20.47" y="4.1" width="4.09" height="2.05"/><rect class="cls-1" x="12.28" y="8.19" width="20.47" height="2.05"/><path class="cls-1" d="M11.26,26.62H17.4a1,1,0,0,0,1-1V19.88L21.2,17.1l-1.45-1.44L17,18.43H11.26a1,1,0,0,0-1,1v6.14a1,1,0,0,0,1,1Zm1-6.14h2.65L13.61,21.8l1.45,1.45,1.32-1.33v2.65h-4.1Z"/><path class="cls-1" d="M11.26,38.9H17.4a1,1,0,0,0,1-1V32.16l2.77-2.77-1.45-1.45L17,30.71H11.26a1,1,0,0,0-1,1v6.14a1,1,0,0,0,1,1Zm1-6.14h2.65l-1.32,1.32,1.45,1.45,1.32-1.32v2.65h-4.1Z"/><path class="cls-1" d="M11.26,51.19H17.4a1,1,0,0,0,1-1V44.45l2.77-2.78-1.45-1.44L17,43H11.26a1,1,0,0,0-1,1v6.14a1,1,0,0,0,1,1Zm1-6.14h2.65l-1.32,1.32,1.45,1.45,1.32-1.33v2.65h-4.1Z"/></g></g></svg>