<svg xmlns="http://www.w3.org/2000/svg" viewBox="0 0 48.96 32.64"><defs><style>.cls-1{fill:#bf2026;}</style></defs><g id="Layer_2" data-name="Layer 2"><g id="Layer_1-2" data-name="Layer 1"><path class="cls-1" d="M43.86,0H5.1A5.11,5.11,0,0,0,0,5.1V27.54a5.11,5.11,0,0,0,5.1,5.1H43.86a5.11,5.11,0,0,0,5.1-5.1V5.1A5.11,5.11,0,0,0,43.86,0Zm3.06,27.54a3.06,3.06,0,0,1-3.06,3.06H5.1A3.06,3.06,0,0,1,2,27.54V5.1A3.06,3.06,0,0,1,5.1,2H43.86A3.06,3.06,0,0,1,46.92,5.1V27.54Z"/><path class="cls-1" d="M44.7,4.52a1,1,0,0,0-1.42-.26L26.55,15.71a3.66,3.66,0,0,1-4.15,0L5.68,4.26A1,1,0,0,0,4.52,5.94L21.25,17.39a5.7,5.7,0,0,0,6.45,0L44.43,5.94A1,1,0,0,0,44.7,4.52Z"/><path class="cls-1" d="M18.12,16.68a1,1,0,0,0-1.44-.13L4.45,26.75a1,1,0,0,0-.14,1.44,1.06,1.06,0,0,0,.79.37,1,1,0,0,0,.65-.24L18,18.12A1,1,0,0,0,18.12,16.68Z"/><path class="cls-1" d="M44.51,26.75,32.27,16.55a1,1,0,0,0-1.43.13A1,1,0,0,0,31,18.12l12.24,10.2a1,1,0,0,0,.65.24,1,1,0,0,0,.78-.37A1,1,0,0,0,44.51,26.75Z"/></g></g></svg>