<svg xmlns="http://www.w3.org/2000/svg" viewBox="0 0 53.23 61.42"><defs><style>.cls-1{fill:#bf2026;}</style></defs><g id="Layer_2" data-name="Layer 2"><g id="Layer_1-2" data-name="Layer 1"><path class="cls-1" d="M48.12,30.71H41V17.9a9.21,9.21,0,0,0,6.14-8.69V5.12A5.12,5.12,0,0,0,42,0H33.78a5.13,5.13,0,0,0-5.12,5.12V9.21a9.21,9.21,0,0,0,6.15,8.69V30.71H5.12A5.13,5.13,0,0,0,0,35.83V56.31a5.11,5.11,0,0,0,5.12,5.11h43a5.11,5.11,0,0,0,5.11-5.11V35.83a5.13,5.13,0,0,0-5.11-5.12ZM31.74,43a3.08,3.08,0,0,0-3.08,3.07v6.14a1,1,0,0,1-1,1H9.21a1,1,0,0,1-1-1V50.16a1,1,0,0,1,1-1H21.5a3.08,3.08,0,0,0,3.07-3.07V39.93a1,1,0,0,1,1-1h9.22V43Zm5.11-20.48h2V43h-2ZM41,38.9H44a1,1,0,0,1,1,1v2a1,1,0,0,1-1,1H41ZM30.71,5.12a3.07,3.07,0,0,1,3.07-3.07H42A3.06,3.06,0,0,1,45,5.12V8.19h-3.2a4.1,4.1,0,0,0-7.93,0h-3.2Zm9.22,4.09A2,2,0,1,1,36,8.43a2,2,0,0,1,1.89-1.26,2.05,2.05,0,0,1,2,2Zm-9.14,1h3.12a4.1,4.1,0,0,0,7.93,0H45a7.15,7.15,0,0,1-5.3,5.91,1,1,0,0,0-.77,1v3.32h-2V17.15a1,1,0,0,0-.76-1,7.15,7.15,0,0,1-5.3-5.91Zm20.4,46.07a3.08,3.08,0,0,1-3.07,3.07h-43a3.07,3.07,0,0,1-3.07-3.07V35.83a3.07,3.07,0,0,1,3.07-3.07H34.81v4.09H25.59a3.09,3.09,0,0,0-3.07,3.08v6.14a1,1,0,0,1-1,1H9.21a3.08,3.08,0,0,0-3.07,3.07v2.05a3.07,3.07,0,0,0,3.07,3.07H27.64a3.06,3.06,0,0,0,3.07-3.07V46.07a1,1,0,0,1,1-1H44A3.06,3.06,0,0,0,47.09,42v-2A3.08,3.08,0,0,0,44,36.85H41V32.76h7.17a3.08,3.08,0,0,1,3.07,3.07Z"/><path class="cls-1" d="M7.17,43h6.14a1,1,0,0,0,1-1V35.83a1,1,0,0,0-1-1H7.17a1,1,0,0,0-1,1V42a1,1,0,0,0,1,1Zm1-6.15h4.09V41H8.19Z"/><path class="cls-1" d="M37.88,47.09h-4.1a1,1,0,0,0-1,1v6.14a1,1,0,0,0,1,1h4.1a1,1,0,0,0,1-1V48.12a1,1,0,0,0-1-1Zm-1,6.14h-2V49.14h2Z"/><path class="cls-1" d="M46.07,47.09H42a1,1,0,0,0-1,1v6.14a1,1,0,0,0,1,1h4.1a1,1,0,0,0,1-1V48.12a1,1,0,0,0-1-1Zm-1,6.14H43V49.14h2Z"/></g></g></svg>