<svg xmlns="http://www.w3.org/2000/svg" viewBox="0 0 66.35 60"><defs><style>.cls-1{fill:#bf2026;}</style></defs><g id="Layer_2" data-name="Layer 2"><g id="Layer_1-2" data-name="Layer 1"><path class="cls-1" d="M63.08,40.07l1.39-10.45A7.25,7.25,0,0,0,61.83,18l-5-11.52A7.26,7.26,0,0,0,42.64,5.32L32.2,15.76H26a3.57,3.57,0,0,0-3.56,3.56V30.49h-5.3v-2a1.88,1.88,0,0,0-1.88-1.88h-7a1.89,1.89,0,0,0-1.88,1.88v2.06a3.56,3.56,0,0,0-3,3.51v11.2A8.16,8.16,0,0,0,8.16,60H32.53a8.16,8.16,0,0,0,4.82-14.75V21.61l8.29-8.29a7.28,7.28,0,0,0,4,1.19,7.17,7.17,0,0,0,2.08-.3L54,19.56A7.26,7.26,0,0,0,56.3,31.45L54.77,41l-4.43,4.44-6.21.43a1.49,1.49,0,0,0-1,2.54l4.76,4.76a10,10,0,0,0,16.26-3,1,1,0,1,0-1.77-.8A8.1,8.1,0,0,1,49.31,51.8L48,50.5l10.8-10.79a.92.92,0,0,1,1.3,0,9.71,9.71,0,0,1,3,5.67,1,1,0,0,0,1.06.88,1,1,0,0,0,.88-1,10,10,0,0,0-2-5.14ZM46.64,49.13l-1.38-1.39,3-.21ZM30.19,17.7h3.59a1.62,1.62,0,0,1,1.62,1.62V30.49H31.81a1.63,1.63,0,0,1-1.62-1.62ZM8.29,28.55h6.89v1.94H8.29ZM38.75,51.84a6.23,6.23,0,0,1-6.22,6.22H8.16a6.22,6.22,0,1,1,0-12.44h4.23a1,1,0,0,0,0-1.95H8.16a8,8,0,0,0-2.87.53V34.05a1.63,1.63,0,0,1,1.62-1.62h15.7a1.75,1.75,0,0,0,1.75-1.75V19.32A1.63,1.63,0,0,1,26,17.7h2.27V28.87a3.56,3.56,0,0,0,3.56,3.56H35.4V44.2a8,8,0,0,0-2.87-.53H16.93a1,1,0,0,0,0,1.95h15.6a6.23,6.23,0,0,1,6.22,6.22ZM37.32,18.89a3.56,3.56,0,0,0-1.41-2.42,3.42,3.42,0,0,0-1.11-.56l7.65-7.65A7.21,7.21,0,0,0,44.18,12Zm12.31-6.32A5.32,5.32,0,1,1,55,7.26a5.31,5.31,0,0,1-5.32,5.31Zm3.85.84a7.38,7.38,0,0,0,2.82-3.28l3.19,7.38-.4,0a7.12,7.12,0,0,0-3.46.89Zm7.89,24.81a2.94,2.94,0,0,0-4.26.44L58.18,32a6.84,6.84,0,0,0,.91.06,7.18,7.18,0,0,0,3.2-.75Zm-2.28-8.16a5.31,5.31,0,1,1,5.32-5.31,5.31,5.31,0,0,1-5.32,5.31ZM49.63,3.89A3.37,3.37,0,1,0,53,7.26a3.37,3.37,0,0,0-3.37-3.37Zm0,4.79a1.43,1.43,0,1,1,1.43-1.42,1.43,1.43,0,0,1-1.43,1.42Zm9.46,12.7a3.37,3.37,0,1,0,3.37,3.37,3.37,3.37,0,0,0-3.37-3.37Zm0,4.8a1.43,1.43,0,1,1,1.43-1.43,1.43,1.43,0,0,1-1.43,1.43ZM20.35,47.82a4,4,0,1,0,4,4,4,4,0,0,0-4-4Zm0,6.09a2.08,2.08,0,1,1,2.07-2.07,2.08,2.08,0,0,1-2.07,2.07Zm11.92-6.09a4,4,0,1,0,4,4,4,4,0,0,0-4-4Zm0,6.09a2.08,2.08,0,1,1,2.07-2.07,2.08,2.08,0,0,1-2.07,2.07ZM8.42,47.82a4,4,0,1,0,4,4,4,4,0,0,0-4-4Zm0,6.09a2.08,2.08,0,1,1,2.08-2.07,2.07,2.07,0,0,1-2.08,2.07Zm25-14.06V36.26a1.88,1.88,0,0,0-1.88-1.88H9.11a1.88,1.88,0,0,0-1.88,1.88v3.59a1.89,1.89,0,0,0,1.88,1.88H31.58a1.89,1.89,0,0,0,1.88-1.88Zm-1.95-.07H9.18V36.32H31.51Z"/></g></g></svg>