<svg xmlns="http://www.w3.org/2000/svg" viewBox="0 0 60 60"><defs><style>.cls-1{fill:#bf2026;}</style></defs><g id="Layer_2" data-name="Layer 2"><g id="Layer_1-2" data-name="Layer 1"><rect class="cls-1" x="4" y="50" width="2" height="10"/><path class="cls-1" d="M29.14,50l-6.77-1-5.06-3.37A4,4,0,0,0,15.09,45H12.65a5.5,5.5,0,1,0-6.3,0H5a5,5,0,0,0-5,5V60H2V50a3,3,0,0,1,3-3H15.09a2,2,0,0,1,1.11.34l5.25,3.5a1,1,0,0,0,.41.15l6.14.88V53H22.24l-5.79-2.9a1,1,0,0,0-1,0A1,1,0,0,0,15,51v9h2V52.62l4.55,2.28A1,1,0,0,0,22,55h7a1,1,0,0,0,1-1V51a1,1,0,0,0-.86-1ZM9.5,44A3.5,3.5,0,1,1,13,40.5,3.49,3.49,0,0,1,9.5,44Z"/><path class="cls-1" d="M56,45H53.15a5.5,5.5,0,1,0-6.3,0H44a4,4,0,0,0-4,4V60h2V49a2,2,0,0,1,2-2H56a2,2,0,0,1,2,2V60h2V49a4,4,0,0,0-4-4Zm-6-1a3.5,3.5,0,1,1,3.5-3.5A3.49,3.49,0,0,1,50,44Z"/><rect class="cls-1" x="54" y="50" width="2" height="10"/><rect class="cls-1" x="44" y="50" width="2" height="10"/><path class="cls-1" d="M42,37a1,1,0,0,0,1-1V32h7a3,3,0,0,0,3-3V11a3,3,0,0,0-3-3H37V3a3,3,0,0,0-3-3H8A3,3,0,0,0,5,3V25a3,3,0,0,0,3,3h5v4a1,1,0,0,0,1.78.63L18.48,28H23v1a3,3,0,0,0,3,3H37.52l3.7,4.63A1,1,0,0,0,42,37ZM18,26a1,1,0,0,0-.78.38L15,29.15V27a1,1,0,0,0-1-1H8a1,1,0,0,1-1-1V3A1,1,0,0,1,8,2H34a1,1,0,0,1,1,1V25a1,1,0,0,1-1,1Zm23,7.15-2.22-2.77A1,1,0,0,0,38,30H26a1,1,0,0,1-1-1V28h9a3,3,0,0,0,3-3V10H50a1,1,0,0,1,1,1V29a1,1,0,0,1-1,1H42a1,1,0,0,0-1,1Z"/><path class="cls-1" d="M30.94,11.6a1.82,1.82,0,0,0-.2-1.42l-1.45-2.4a1.94,1.94,0,0,0-2.58-.67l-.48.27a8.83,8.83,0,0,0-1.88-1V5.86A1.88,1.88,0,0,0,22.45,4h-2.9a1.88,1.88,0,0,0-1.9,1.86v.48A7.11,7.11,0,0,0,15.82,7.4l-.53-.29a1.93,1.93,0,0,0-2.57.67l-1.46,2.4a1.81,1.81,0,0,0-.19,1.42,1.85,1.85,0,0,0,.9,1.16l.45.24a7.44,7.44,0,0,0,0,2l-.45.25a1.86,1.86,0,0,0-.71,2.57l1.45,2.4a2,2,0,0,0,2.58.68l.48-.28a8.83,8.83,0,0,0,1.88,1v.48A1.88,1.88,0,0,0,19.55,24h2.9a1.88,1.88,0,0,0,1.9-1.86v-.48a7.11,7.11,0,0,0,1.83-1.06l.53.29a1.93,1.93,0,0,0,2.57-.67l1.46-2.4a1.81,1.81,0,0,0,.19-1.42,1.85,1.85,0,0,0-.9-1.16L29.59,15a8.36,8.36,0,0,0,0-2l.44-.25a1.82,1.82,0,0,0,.91-1.15ZM27.65,14a6.07,6.07,0,0,1-.06.85,1.85,1.85,0,0,0,.95,1.86l.4.22-1.32,2.18-.47-.26A2,2,0,0,0,25,19a6.83,6.83,0,0,1-1.47.82,1.88,1.88,0,0,0-1.22,1.73V22h-2.7v-.44a1.89,1.89,0,0,0-1.22-1.74A6.83,6.83,0,0,1,17,19a2,2,0,0,0-2.1-.15l-.48.26-1.31-2.19.39-.22a1.83,1.83,0,0,0,1-1.86,4.76,4.76,0,0,1-.07-.84,6.07,6.07,0,0,1,.06-.85,1.85,1.85,0,0,0-.95-1.86l-.4-.22,1.32-2.18.47.26A2,2,0,0,0,17,9a6.83,6.83,0,0,1,1.47-.82,1.88,1.88,0,0,0,1.22-1.73V6h2.7v.44a1.89,1.89,0,0,0,1.22,1.74A6.83,6.83,0,0,1,25,9a2,2,0,0,0,2.1.15l.48-.26,1.31,2.19-.39.22a1.84,1.84,0,0,0-.95,1.86,5.93,5.93,0,0,1,.06.84Z"/><path class="cls-1" d="M21,9a5,5,0,1,0,5,5,5,5,0,0,0-5-5Zm0,8a3,3,0,1,1,3-3,3,3,0,0,1-3,3Z"/></g></g></svg>