<svg xmlns="http://www.w3.org/2000/svg" viewBox="0 0 40.63 55"><defs><style>.cls-1{fill:#bf2026;}</style></defs><g id="Layer_2" data-name="Layer 2"><g id="Layer_1-2" data-name="Layer 1"><path class="cls-1" d="M20.32,0A20.34,20.34,0,0,0,0,20.32a23.44,23.44,0,0,0,1.72,7.82,33,33,0,0,0,2.35,4.39L18,53.64a2.65,2.65,0,0,0,4.63,0L36.56,32.53a30.86,30.86,0,0,0,2.35-4.39,23.44,23.44,0,0,0,1.72-7.82A20.33,20.33,0,0,0,20.32,0ZM36.71,27.21a30.85,30.85,0,0,1-2.14,4L20.64,52.32c-.28.42-.37.42-.64,0L6.07,31.22a29.68,29.68,0,0,1-2.14-4,21.26,21.26,0,0,1-1.54-6.89,17.93,17.93,0,1,1,35.85,0A21.41,21.41,0,0,1,36.71,27.21Z"/><path class="cls-1" d="M20.32,9.56A10.76,10.76,0,1,0,31.07,20.32,10.78,10.78,0,0,0,20.32,9.56Zm0,19.12a8.37,8.37,0,1,1,8.36-8.36A8.38,8.38,0,0,1,20.32,28.68Z"/></g></g></svg>