<svg xmlns="http://www.w3.org/2000/svg" viewBox="0 0 60 60"><defs><style>.cls-1{fill:#bf2026;}</style></defs><g id="Layer_2" data-name="Layer 2"><g id="Layer_1-2" data-name="Layer 1"><path class="cls-1" d="M55,13H36V4a4,4,0,0,0-4-4H4A4,4,0,0,0,0,4V56a4,4,0,0,0,4,4H32a4,4,0,0,0,4-4V43H55a5,5,0,0,0,5-5V18a5,5,0,0,0-5-5Zm3,5V30H30a1,1,0,0,0,0,2H58v4H18V32h5a1,1,0,0,0,0-2H18V18a3,3,0,0,1,3-3H55a3,3,0,0,1,3,3ZM25.69,2,24.41,3.37A2,2,0,0,1,23,4h-9.9a2,2,0,0,1-1.46-.63L10.31,2ZM32,58H4a2,2,0,0,1-2-2V54.44A4,4,0,0,0,4,55H32a4,4,0,0,0,2-.56V56a2,2,0,0,1-2,2Zm2-7a2,2,0,0,1-2,2H4a2,2,0,0,1-2-2V4A2,2,0,0,1,4,2H7.57l2.56,2.74A4,4,0,0,0,13.05,6H23a4,4,0,0,0,2.92-1.26L28.43,2H32a2,2,0,0,1,2,2v9H21a5,5,0,0,0-5,5v2H13a1,1,0,0,0,0,2h3v5H11a1,1,0,0,0,0,2h5v5H13a1,1,0,0,0,0,2h3v2a5,5,0,0,0,5,5H34ZM55,41H21a3,3,0,0,1-3-3H58a3,3,0,0,1-3,3Z"/><path class="cls-1" d="M8,22H9a1,1,0,0,0,0-2H8a1,1,0,0,0,0,2Z"/><path class="cls-1" d="M9,34H8a1,1,0,0,0,0,2H9a1,1,0,0,0,0-2Z"/><path class="cls-1" d="M8,28a1,1,0,0,0-1-1H5a1,1,0,0,0,0,2H7a1,1,0,0,0,1-1Z"/><path class="cls-1" d="M49,23a3,3,0,0,0,2-.78,3,3,0,1,0,0-4.44A3,3,0,1,0,49,23Zm4-4a1,1,0,1,1-1,1,1,1,0,0,1,1-1Zm-4,0a1,1,0,1,1-1,1,1,1,0,0,1,1-1Z"/><path class="cls-1" d="M22,23h1a1,1,0,0,0,0-2H22a1,1,0,0,0,0,2Z"/><path class="cls-1" d="M27,23h3a1,1,0,0,0,0-2H27a1,1,0,0,0,0,2Z"/><path class="cls-1" d="M33,25H22a1,1,0,0,0,0,2H33a1,1,0,0,0,0-2Z"/></g></g></svg>