<svg xmlns="http://www.w3.org/2000/svg" viewBox="0 0 55 55"><defs><style>.cls-1{fill:#bf2026;}</style></defs><g id="Layer_2" data-name="Layer 2"><g id="Layer_1-2" data-name="Layer 1"><g id="_Group_" data-name="&lt;Group&gt;"><path id="_6" data-name="6" class="cls-1" d="M30.18,0a27.53,27.53,0,0,1,7.88,2l0,0a27.54,27.54,0,0,1,7,4.22.86.86,0,0,1,.12,1.21l-.06.06L40.7,11.93a.86.86,0,0,1-1.19,0A19.44,19.44,0,0,0,35,9.35l0,0A19.65,19.65,0,0,0,29.91,8a.85.85,0,0,1-.75-.85h0V.86A.87.87,0,0,1,30,0ZM37.4,3.56a25.81,25.81,0,0,0-6.52-1.74V6.41a20.94,20.94,0,0,1,4.74,1.33l0,0A21.27,21.27,0,0,1,40,10.19l3.25-3.25a26.25,26.25,0,0,0-5.81-3.36l-.05,0ZM25.06,8a19.46,19.46,0,0,0-9.62,4,.87.87,0,0,1-1.14-.07h0L9.84,7.48a.86.86,0,0,1,0-1.22l.09-.08a27.8,27.8,0,0,1,7-4.21h0A27.54,27.54,0,0,1,24.9,0a.86.86,0,0,1,.94.78V.86h0v6.3a.86.86,0,0,1-.78.86Zm-5.72-.26a20.94,20.94,0,0,1,4.78-1.35V1.82a25.9,25.9,0,0,0-6.48,1.72l0,0a25.62,25.62,0,0,0-5.86,3.38L15,10.19a21.27,21.27,0,0,1,4.35-2.43ZM12,15.46A19.5,19.5,0,0,0,8,25a.87.87,0,0,1-.86.76H.86A.86.86,0,0,1,0,24.93a.81.81,0,0,1,0-.16,27.41,27.41,0,0,1,2-7.86H2a27.5,27.5,0,0,1,4.24-7,.86.86,0,0,1,1.21-.12l.06.06L12,14.27a.87.87,0,0,1,0,1.19ZM7.77,19.3A21.71,21.71,0,0,1,10.21,15L7,11.71a26,26,0,0,0-3.39,5.85,25.75,25.75,0,0,0-1.75,6.51h4.6A21.76,21.76,0,0,1,7.77,19.3Zm41-9.39A27.43,27.43,0,0,1,55,24.85a.85.85,0,0,1-.78.93H47.83A.87.87,0,0,1,47,25,19.36,19.36,0,0,0,45.63,20h0A19.84,19.84,0,0,0,43,15.4.85.85,0,0,1,43,14.27h0L47.5,9.82a.86.86,0,0,1,1.22,0l.09.09Zm2.62,7.65A25.65,25.65,0,0,0,48,11.71L44.79,15a21.38,21.38,0,0,1,2.43,4.33h0a21.24,21.24,0,0,1,1.36,4.77h4.6a25.75,25.75,0,0,0-1.75-6.51ZM55,30.12A27.64,27.64,0,0,1,8.92,47.83,27.44,27.44,0,0,1,0,30a.85.85,0,0,1,.77-.93H7.17a.87.87,0,0,1,.86.78,19.62,19.62,0,0,0,38.94,0,.87.87,0,0,1,.86-.76h6.31A.87.87,0,0,1,55,30c0,.06,0,.11,0,.17ZM44.92,46.56a25.86,25.86,0,0,0,8.26-15.74h-4.6a21.36,21.36,0,0,1-42.16,0H1.82a25.92,25.92,0,0,0,43.1,15.74Z"/><path id="_5" data-name="5" class="cls-1" d="M33.5,25.06a6.45,6.45,0,1,1-3.45-3.54,6.47,6.47,0,0,1,3.45,3.54Zm-1.66,4.25a4.72,4.72,0,0,0,.06-3.62h0a4.74,4.74,0,1,0-.06,3.62Z"/><path id="_4" data-name="4" class="cls-1" d="M30.84,22.2,41.75,20a1.68,1.68,0,0,1,1.15.19,1.8,1.8,0,0,1,.74.87,1.79,1.79,0,0,1,.06,1.14,1.63,1.63,0,0,1-.7.92L33.49,29a.86.86,0,0,1-1.31-.86,4.67,4.67,0,0,0,0-1.24,5.15,5.15,0,0,0-.3-1.2,4.71,4.71,0,0,0-.61-1.07,4.54,4.54,0,0,0-.86-.89.86.86,0,0,1-.15-1.21.9.9,0,0,1,.56-.32ZM42,21.67l-9.37,1.91h0a6.65,6.65,0,0,1,.83,1.48,6.47,6.47,0,0,1,.41,1.64Z"/><path id="_3" data-name="3" class="cls-1" d="M30.23,26.36a2.94,2.94,0,0,1-5.46,2.16h0a2.87,2.87,0,0,1,0-2.23,3,3,0,0,1,1.62-1.56h0a2.94,2.94,0,0,1,3.81,1.64Zm-1.62,1.56a1.2,1.2,0,0,0,0-.93,1.17,1.17,0,0,0-.65-.66,1.19,1.19,0,0,0-.87,0l-.12.05a1.19,1.19,0,0,0-.61.62,1.24,1.24,0,0,0,0,.87.56.56,0,0,1,0,.12,1.25,1.25,0,0,0,1.56.62,1.17,1.17,0,0,0,.66-.65Z"/><path id="_2" data-name="2" class="cls-1" d="M14.9,25a.86.86,0,1,1-1.69-.33,14,14,0,0,1,.42-1.6,13.54,13.54,0,0,1,.58-1.54.86.86,0,0,1,1.14-.43.85.85,0,0,1,.43,1.13,14.07,14.07,0,0,0-.52,1.36A13.17,13.17,0,0,0,14.9,25ZM19,17.84a.86.86,0,0,1-1.14-1.29,14.66,14.66,0,0,1,2-1.48A13.88,13.88,0,0,1,22.12,14a14.61,14.61,0,0,1,16,3.58.87.87,0,0,1,0,1.22.88.88,0,0,1-1.22,0,12.85,12.85,0,0,0-14.14-3.17,14.07,14.07,0,0,0-2,1A12.28,12.28,0,0,0,19,17.84Z"/><path id="_1" data-name="1" class="cls-1" d="M23.6,36.7h7.8a2.88,2.88,0,0,1,2.07.87,2.93,2.93,0,0,1,.87,2.07,3,3,0,0,1-.87,2.07h0a2.92,2.92,0,0,1-2.07.86H23.6a2.93,2.93,0,0,1-2.07-.86h0a2.92,2.92,0,0,1-.87-2.07,2.88,2.88,0,0,1,.87-2.07l0-.06a2.94,2.94,0,0,1,2-.81Zm7.79,1.73H23.6a1.22,1.22,0,0,0-.82.32l0,0a1.23,1.23,0,0,0-.36.86,1.19,1.19,0,0,0,.35.85,1.24,1.24,0,0,0,.86.36h7.79a1.21,1.21,0,0,0,.86-.36h0a1.2,1.2,0,0,0,.36-.85,1.23,1.23,0,0,0-.36-.86,1.2,1.2,0,0,0-.86-.35Z"/></g></g></g></svg>