<svg xmlns="http://www.w3.org/2000/svg" viewBox="0 0 48.44 48.45"><defs><style>.cls-1{fill:#bf2026;}</style></defs><g id="Layer_2" data-name="Layer 2"><g id="Layer_1-2" data-name="Layer 1"><path class="cls-1" d="M48.42,39.87a2.88,2.88,0,0,0-1.12-2L38,30.65a4.9,4.9,0,0,0-5.46-.37l-1.71,1a3,3,0,0,1-3.3-.22,57.51,57.51,0,0,1-5.44-4.74A55.41,55.41,0,0,1,17.38,21a3,3,0,0,1-.21-3.3l1-1.72a4.89,4.89,0,0,0-.37-5.46L10.58,1.15A3,3,0,0,0,8.57,0,2.89,2.89,0,0,0,6.38.68C4.79,2,2.75,3.69,2.05,4.4.61,5.84,0,7.71,0,10.69c0,3.46,6.36,16.36,14,23.7,7.37,7.69,20.26,14.06,23.73,14.06,3,0,4.85-.62,6.28-2.05.76-.76,2.66-3,3.73-4.33A2.92,2.92,0,0,0,48.42,39.87Zm-2.15,1C44.5,43,43.19,44.51,42.67,45c-.76.77-1.89,1.48-4.91,1.48-2.66,0-15.16-6-22.36-13.49C7.91,25.84,1.94,13.35,1.94,10.69c0-3,.71-4.15,1.48-4.92.51-.51,2-1.79,4.19-3.6a1,1,0,0,1,.64-.23h.11A1,1,0,0,1,9,2.33l7.22,9.34A3,3,0,0,1,16.48,15l-1,1.72a4.89,4.89,0,0,0,.35,5.44,60.27,60.27,0,0,0,4.84,5.55,59.32,59.32,0,0,0,5.63,4.9,4.88,4.88,0,0,0,5.45.37h0l1.71-1a3,3,0,0,1,3.31.23l9.33,7.21a1,1,0,0,1,.39.69A1,1,0,0,1,46.27,40.84Z"/><path class="cls-1" d="M33.62,3.82a18.39,18.39,0,0,1,11,11,1,1,0,0,0,1.24.58,1,1,0,0,0,.58-1.25A20.33,20.33,0,0,0,34.28,2,1,1,0,0,0,33,2.58,1,1,0,0,0,33.62,3.82Z"/><path class="cls-1" d="M31,11.11a10.72,10.72,0,0,1,6.37,6.37,1,1,0,0,0,1.82-.66,12.71,12.71,0,0,0-7.54-7.54A1,1,0,1,0,31,11.11Z"/><path class="cls-1" d="M28.32,18.39a2.87,2.87,0,0,1,1.73,1.74,1,1,0,0,0,.92.64.93.93,0,0,0,.32-.05,1,1,0,0,0,.59-1.24A4.79,4.79,0,0,0,29,16.57a1,1,0,1,0-.65,1.82Z"/></g></g></svg>