<svg xmlns="http://www.w3.org/2000/svg" viewBox="0 0 41.7 55"><defs><style>.cls-1{fill:#bf2026;}</style></defs><g id="Layer_2" data-name="Layer 2"><g id="Layer_1-2" data-name="Layer 1"><path class="cls-1" d="M27.09,8.4a.87.87,0,0,0,.78-1.55A15.67,15.67,0,0,0,8.44,30.44a.86.86,0,0,0,.68.33.9.9,0,0,0,.54-.18.88.88,0,0,0,.15-1.22,13.93,13.93,0,0,1,17.28-21Z"/><path class="cls-1" d="M33.63,13.39a.87.87,0,0,0-.38,1.17,13.93,13.93,0,0,1-21,17.28.86.86,0,1,0-1.06,1.36A15.66,15.66,0,0,0,34.79,13.78a.86.86,0,0,0-1.16-.39Z"/><path class="cls-1" d="M30,10.39c.22.19.43.39.64.6s.4.42.59.63a.86.86,0,0,0,.65.3.91.91,0,0,0,.58-.22.87.87,0,0,0,.07-1.23c-.21-.24-.44-.48-.67-.71s-.47-.45-.71-.67A.87.87,0,0,0,30,10.39Z"/><path class="cls-1" d="M39.79,21.49l-1.14,1.87a2.89,2.89,0,0,0-.4,2l.34,2.16a1.21,1.21,0,0,1-.49,1.18L36.34,30a3,3,0,0,0-1.14,1.7l-.51,2.12a1.21,1.21,0,0,1-.9.9l-2.13.51A3,3,0,0,0,30,36.34L28.69,38.1a1.21,1.21,0,0,1-1.18.49l-2.16-.34a2.89,2.89,0,0,0-2,.4l-1.87,1.14a1.21,1.21,0,0,1-1.27,0l-1.87-1.14a2.91,2.91,0,0,0-1.54-.43,3.55,3.55,0,0,0-.46,0l-2.16.34A1.22,1.22,0,0,1,13,38.1l-1.28-1.76A3,3,0,0,0,10,35.2l-2.13-.51a1.21,1.21,0,0,1-.9-.9L6.5,31.66A3,3,0,0,0,5.36,30L3.6,28.69a1.21,1.21,0,0,1-.49-1.18l.34-2.16a2.89,2.89,0,0,0-.4-2L1.91,21.49a1.21,1.21,0,0,1,0-1.27l1.14-1.87a2.93,2.93,0,0,0,.4-2l-.34-2.16A1.22,1.22,0,0,1,3.6,13l1.76-1.29A3,3,0,0,0,6.5,10L7,7.91a1.21,1.21,0,0,1,.9-.9L10,6.5a3,3,0,0,0,1.69-1.14L13,3.6a1.2,1.2,0,0,1,1.17-.49l2.16.34a2.93,2.93,0,0,0,2-.4l1.87-1.14a1.21,1.21,0,0,1,1.27,0l1.87,1.14a2.89,2.89,0,0,0,2,.4l2.16-.34a1.23,1.23,0,0,1,1.18.49L30,5.36a3,3,0,0,0,1.7,1.14L33.79,7a1.21,1.21,0,0,1,.9.9L35.2,10a3,3,0,0,0,1.14,1.69L38.1,13a1.2,1.2,0,0,1,.49,1.17l-.34,2.16a2.93,2.93,0,0,0,.4,2l1.14,1.87a1.21,1.21,0,0,1,0,1.27ZM33.32,48.85a.87.87,0,0,0-.82.37l-2.2,3.16L24.73,40h.35l2.16.34a3,3,0,0,0,.9,0L31,46.72a.86.86,0,0,0,.79.51.84.84,0,0,0,.35-.07A.88.88,0,0,0,32.6,46l-2.9-6.45a3.31,3.31,0,0,0,.39-.44l1.28-1.76a1.18,1.18,0,0,1,.3-.29l5.48,12.24-3.83-.46ZM11.44,52.38,9.23,49.22a.84.84,0,0,0-.81-.37l-3.83.46,5.47-12.22a1.38,1.38,0,0,1,.27.27l1.28,1.76a3.63,3.63,0,0,0,.41.46L9.14,46a.87.87,0,0,0,.44,1.15.84.84,0,0,0,.35.07.86.86,0,0,0,.79-.51l2.87-6.41a2.82,2.82,0,0,0,.87,0L16.62,40A1.28,1.28,0,0,1,17,40L11.44,52.38ZM41.27,19.31l-1.14-1.87a1.24,1.24,0,0,1-.17-.82l.34-2.16a2.92,2.92,0,0,0-1.18-2.85l-1.76-1.28a1.21,1.21,0,0,1-.47-.7L36.37,7.5A2.92,2.92,0,0,0,34.2,5.33l-2.13-.52a1.21,1.21,0,0,1-.7-.47L30.09,2.58A2.94,2.94,0,0,0,27.24,1.4l-2.16.34a1.24,1.24,0,0,1-.82-.17L22.39.43a3,3,0,0,0-3.08,0L17.44,1.57a1.23,1.23,0,0,1-.82.17L14.46,1.4a2.94,2.94,0,0,0-2.85,1.18L10.33,4.34a1.21,1.21,0,0,1-.7.47L7.5,5.33A2.92,2.92,0,0,0,5.33,7.5L4.81,9.63a1.21,1.21,0,0,1-.47.7L2.58,11.61A2.94,2.94,0,0,0,1.4,14.46l.34,2.16a1.24,1.24,0,0,1-.17.82L.43,19.31a3,3,0,0,0,0,3.08l1.14,1.87a1.24,1.24,0,0,1,.17.82L1.4,27.24a2.94,2.94,0,0,0,1.18,2.85l1.76,1.28a1.21,1.21,0,0,1,.47.7l.52,2.13A2.92,2.92,0,0,0,7.5,36.37l.89.22L2.38,50a.88.88,0,0,0,.09.87.86.86,0,0,0,.8.34l4.84-.58,2.79,4a.86.86,0,0,0,.71.37h.08a.88.88,0,0,0,.71-.51l6.14-13.7.77.48a3,3,0,0,0,3.08,0l.8-.49,6.15,13.71a.88.88,0,0,0,.71.51h.08a.87.87,0,0,0,.71-.37l2.79-4,4.83.58a.86.86,0,0,0,.9-1.21l-6-13.42.86-.2a3,3,0,0,0,2.17-2.18l.52-2.13a1.21,1.21,0,0,1,.47-.7l1.76-1.28a2.92,2.92,0,0,0,1.18-2.85L40,25.08a1.24,1.24,0,0,1,.17-.82l1.14-1.87h0a2.94,2.94,0,0,0,0-3.08Z"/><path class="cls-1" d="M17.91,18.13a.9.9,0,0,0,.69-.5l2.25-4.88,2.25,4.88a.9.9,0,0,0,.69.5l5.33.63-3.94,3.65a.88.88,0,0,0-.26.81l1,5.27-4.69-2.63a.86.86,0,0,0-.84,0l-4.69,2.63,1-5.27a.88.88,0,0,0-.26-.81l-3.94-3.65,5.33-.63Zm-6.78,1.66L15,23.35,14,28.5a1.56,1.56,0,0,0,1.53,1.88,1.64,1.64,0,0,0,.77-.2l4.58-2.57,4.58,2.57a1.57,1.57,0,0,0,1.69-.1,1.54,1.54,0,0,0,.61-1.58l-1-5.15,3.86-3.56a1.57,1.57,0,0,0-.88-2.71l-5.22-.62-2.2-4.76a1.56,1.56,0,0,0-2.84,0l-2.2,4.76L12,17.08a1.57,1.57,0,0,0-.88,2.71Z"/></g></g></svg>