<svg xmlns="http://www.w3.org/2000/svg" viewBox="0 0 52.2 52.2"><defs><style>.cls-1{fill:#bf2026;}</style></defs><g id="Layer_2" data-name="Layer 2"><g id="Layer_1-2" data-name="Layer 1"><path class="cls-1" d="M51.53,35.09l-7.85-7.85a17,17,0,0,0,.68-19.59.77.77,0,0,0-1.06-.22.76.76,0,0,0-.21,1.06,15.46,15.46,0,1,1-2-2.45l0,0a.76.76,0,0,0,1.08,0,.77.77,0,0,0,0-1.08l0,0a17,17,0,0,0-24,0c-.21.21-.41.42-.61.64H.76A.76.76,0,0,0,0,6.36V9.75a.76.76,0,0,0,.76.76.76.76,0,0,0,.77-.76V7.13H16.34A16.3,16.3,0,0,0,14.83,9.7H5.3a.77.77,0,0,0,0,1.53h8.89a18,18,0,0,0-.54,1.87H5.3a.77.77,0,0,0,0,1.53h8.06c-.08.62-.13,1.24-.15,1.87H5.3A.77.77,0,0,0,5.3,18h7.94A16.77,16.77,0,0,0,15,24.49H13.66a.76.76,0,0,0-.76.76V47.89a.76.76,0,0,0,.76.76h6.12a.76.76,0,0,0,.76-.76V31a16.64,16.64,0,0,0,2.14,1.26V47.89a.77.77,0,0,0,.77.76h6.12a.76.76,0,0,0,.76-.76v-14c.6,0,1.19,0,1.78-.11V45.64a.77.77,0,0,0,.77.76.76.76,0,0,0,.76-.76V33.58a16.84,16.84,0,0,0,6.8-3.09l7.84,7.84a2.29,2.29,0,0,0,3.25-3.24ZM19,47.12H14.43V26H15.8A16.49,16.49,0,0,0,18.17,29c.27.28.55.54.84.79Zm5.2,0V32.87a17,17,0,0,0,4.59,1V47.12Zm26.24-9.87a.79.79,0,0,1-1.09,0L41.62,29.5c.19-.17.37-.35.55-.53s.36-.36.53-.55l7.74,7.75a.77.77,0,0,1,0,1.08Z"/><path class="cls-1" d="M32.88,48.17a.77.77,0,0,0-.77.76v1.74H1.53V13.06a.76.76,0,0,0-.77-.76.76.76,0,0,0-.76.76V51.43a.77.77,0,0,0,.76.77H32.88a.77.77,0,0,0,.76-.77v-2.5a.76.76,0,0,0-.76-.76Z"/><path class="cls-1" d="M3.31,31.37V47.89a.77.77,0,0,0,.77.76H10.2a.76.76,0,0,0,.76-.76V31.37a.77.77,0,0,0-.76-.77H4.08a.78.78,0,0,0-.77.77Zm1.53.76H9.43v15H4.84Z"/><path class="cls-1" d="M11,21.43a.77.77,0,0,0,0-1.53H5.3a.77.77,0,0,0,0,1.53Z"/><path class="cls-1" d="M30.17,3.06A13.9,13.9,0,0,0,16.26,17,13.92,13.92,0,1,0,30.17,3.06Zm8.76,22.67A12.41,12.41,0,1,1,42.55,17a12.34,12.34,0,0,1-3.62,8.76Z"/></g></g></svg>