<svg xmlns="http://www.w3.org/2000/svg" viewBox="0 0 50 50"><defs><style>.cls-1{fill:#bf2026;}</style></defs><g id="Layer_2" data-name="Layer 2"><g id="Layer_1-2" data-name="Layer 1"><path class="cls-1" d="M42.07,8.46A14.67,14.67,0,0,0,24.44,5.68a1,1,0,0,0,.94,1.71,12.72,12.72,0,1,1-5.08,5.09,1,1,0,0,0-.39-1.33,1,1,0,0,0-1.32.39c-.06.11-.17.31-.27.52h0a14.65,14.65,0,1,0,23.75-3.6Z"/><path class="cls-1" d="M44.57,5.43a18.56,18.56,0,0,0-28.15,24l-3,3a2.94,2.94,0,0,0-3.34.57L1.43,41.66a4.89,4.89,0,0,0,6.91,6.91L17,40a2.94,2.94,0,0,0,.57-3.34l3-3a18.56,18.56,0,0,0,24-28.15Zm-29,33.15L7,47.19A2.93,2.93,0,0,1,2.81,43l8.61-8.61a1,1,0,0,1,1.38,0l2.77,2.77A1,1,0,0,1,15.57,38.58Zm.69-3.46-1.38-1.38L17.66,31c.22.24.44.48.67.71s.47.45.71.67Zm26.93-4.83a16.6,16.6,0,1,1,0-23.48A16.57,16.57,0,0,1,43.19,30.29Z"/><path class="cls-1" d="M22.5,8.21l0,0a1,1,0,0,0-1.38,1.38l0,0a1,1,0,0,0,1.35,0A1,1,0,0,0,22.5,8.21Z"/></g></g></svg>