<svg xmlns="http://www.w3.org/2000/svg" viewBox="0 0 60 60"><defs><style>.cls-1{fill:#bf2026;}</style></defs><g id="Layer_2" data-name="Layer 2"><g id="Layer_1-2" data-name="Layer 1"><path class="cls-1" d="M51,18a9,9,0,1,0-9-9,9,9,0,0,0,9,9ZM51,2a7,7,0,1,1-7,7,7,7,0,0,1,7-7Z"/><path class="cls-1" d="M50,12a1.05,1.05,0,0,0,.71-.29l5-5L54.29,5.29,50,9.59l-2.29-2.3L46.29,8.71l3,3A1.05,1.05,0,0,0,50,12Z"/><path class="cls-1" d="M59,54H58V39a1,1,0,0,0-1-1H45V36.24c.63-1.09,4.15-6.56,6.54-10.24H55a5,5,0,0,0,5-5,1,1,0,0,0-1-1H49a5,5,0,0,0-5,4.59l-3.26,4a8,8,0,0,0-3.48-1.53l-3-1a1,1,0,0,0-.63,0l-.32-1.93A7,7,0,0,0,36.92,19H38a2,2,0,0,0,2-2V16a2,2,0,0,0-1.62-2l1.33-1.33A1,1,0,0,0,40,12V11a7,7,0,0,0-7-7H27a7,7,0,0,0-7,7v1a1,1,0,0,0,.29.71L21.62,14A2,2,0,0,0,20,16v1a2,2,0,0,0,2,2h1.08a7,7,0,0,0,3.55,5.13l-.32,1.93a1,1,0,0,0-.63,0l-3,1a8,8,0,0,0-3.48,1.53l-3.26-4A5,5,0,0,0,11,20H1a1,1,0,0,0-1,1,5,5,0,0,0,5,5H8.45L15,36.29V38H3a1,1,0,0,0-1,1V54H1a1,1,0,0,0-1,1v4a1,1,0,0,0,1,1H59a1,1,0,0,0,1-1V55a1,1,0,0,0-1-1ZM48,40h2v2H48Zm-2,0v3a1,1,0,0,0,1,1h4a1,1,0,0,0,1-1V40h4V54H42V40Zm3-18h8.83A3,3,0,0,1,55,24H46.17A3,3,0,0,1,49,22ZM38,17H37V16h1ZM23,17H22V16h1Zm0-5v.59l-1-1V11a5,5,0,0,1,5-5h6a5,5,0,0,1,5,5v.59l-1,1V12a1,1,0,0,0-.76-1l-8-2a1,1,0,0,0-.69.08l-4,2A1,1,0,0,0,23,12Zm2,6V12.62l3.12-1.56L35,12.78V18a5,5,0,0,1-10,0Zm6.93,9.66L30,29.59l-1.93-1.93.47-2.82a6.85,6.85,0,0,0,2.92,0Zm-6.2.48,3.56,3.57a1,1,0,0,0,1.42,0l3.56-3.57,1.13.38L31.49,34h-3L24.6,28.52ZM31.82,40l1.11,6.66L30,49.59l-2.93-2.93L28.18,40Zm-3.31-2,.34-2h2.3l.34,2ZM5,24a3,3,0,0,1-2.83-2H11a3,3,0,0,1,2.83,2Zm5.82,2h3.71l8.7,10.63,1.54-1.26-4.29-5.25a6.53,6.53,0,0,1,2.09-1L27,35.24,25,46.84a1,1,0,0,0,.28.87l4,4a1,1,0,0,0,1.42,0l4-4a1,1,0,0,0,.28-.87l-1.94-11.6,4.38-6.13a6.53,6.53,0,0,1,2.09,1l-4.29,5.25,1.54,1.26L45.47,26h3.69C43,35.49,43,35.64,43,36v2H41a1,1,0,0,0-1,1V54H20V39a1,1,0,0,0-1-1H17V36a1,1,0,0,0-.16-.54ZM10,40h2v2H10ZM4,40H8v3a1,1,0,0,0,1,1h4a1,1,0,0,0,1-1V40h4V54H4ZM58,58H2V56H58Z"/><path class="cls-1" d="M3,18H15a3,3,0,0,0,3-3V3a3,3,0,0,0-3-3H3A3,3,0,0,0,0,3V15a3,3,0,0,0,3,3ZM2,3A1,1,0,0,1,3,2H15a1,1,0,0,1,1,1V15a1,1,0,0,1-1,1H3a1,1,0,0,1-1-1Z"/><rect class="cls-1" x="4" y="4" width="2" height="2"/><rect class="cls-1" x="8" y="4" width="6" height="2"/><rect class="cls-1" x="4" y="8" width="10" height="2"/><rect class="cls-1" x="4" y="12" width="10" height="2"/></g></g></svg>