<svg xmlns="http://www.w3.org/2000/svg" viewBox="0 0 61.43 40.95"><defs><style>.cls-1{fill:#bf2026;}</style></defs><g id="Layer_2" data-name="Layer 2"><g id="Layer_1-2" data-name="Layer 1"><path class="cls-1" d="M30.72,23.55a3.07,3.07,0,0,0,2.77-4.4h0L38.61,14l-1.45-1.45L32,17.7h0a3.06,3.06,0,0,0-2.66,0,3.1,3.1,0,0,0-1.66,2.09,3,3,0,0,0,.6,2.59,3.06,3.06,0,0,0,2.4,1.16Zm0-4.1a1,1,0,1,1-1,1,1,1,0,0,1,1-1Z"/><path class="cls-1" d="M35.84,25.59H25.6a1,1,0,0,0-1,1v4.09a1,1,0,0,0,1,1H35.84a1,1,0,0,0,1-1V26.62a1,1,0,0,0-1-1Zm-1,4.1H26.62V27.64h8.19Z"/><rect class="cls-1" x="20.48" y="22.52" width="4.09" height="2.05"/><rect class="cls-1" x="36.86" y="22.52" width="4.09" height="2.05"/><path class="cls-1" d="M49.14,12.28a12.25,12.25,0,0,0-3.89.64,16.37,16.37,0,0,0-29.06,0,12.28,12.28,0,1,0,4.57,20.55,16.36,16.36,0,0,0,19.92,0,12.29,12.29,0,1,0,8.46-21.19ZM13.31,34.76v-2h-2v2a10.14,10.14,0,0,1-3.19-.86l1-1.73-1.77-1-1,1.72A10.22,10.22,0,0,1,4,30.55l1.72-1-1-1.77L3,28.77a10,10,0,0,1-.86-3.18h2v-2h-2A10.14,10.14,0,0,1,3,20.36l1.73,1,1-1.77L4,18.59a10.22,10.22,0,0,1,2.32-2.32l1,1.72,1.77-1-1-1.73a10,10,0,0,1,3.18-.86v2h2v-2a10,10,0,0,1,2,.42,16.36,16.36,0,0,0,3.86,17.32,10.33,10.33,0,0,1-5.9,2.64ZM16.42,21.5h2V19.45h-2a14.4,14.4,0,0,1,.7-3.5l1.86.77.78-1.89-1.86-.77a14.82,14.82,0,0,1,2-3l1.42,1.42,1.44-1.45L21.34,9.65a14.35,14.35,0,0,1,3-2l.77,1.86L27,8.73l-.77-1.86a14.47,14.47,0,0,1,3.5-.69v2h2v-2a14.38,14.38,0,0,1,3.5.69l-.77,1.86,1.89.79.77-1.86a14.15,14.15,0,0,1,3,2l-1.42,1.41,1.45,1.45,1.42-1.42a14.37,14.37,0,0,1,2,3l-1.85.77.78,1.89L44.32,16a13.92,13.92,0,0,1,.69,3.5H43V21.5h2a14.33,14.33,0,0,1-28.59,0Zm38.7,11.37-1-1.72-1.78,1,1,1.73a10.08,10.08,0,0,1-3.18.86v-2H48.12v2a10.3,10.3,0,0,1-5.89-2.64A16.37,16.37,0,0,0,46.08,14.8a10.27,10.27,0,0,1,2-.42v2h2.05v-2a10.08,10.08,0,0,1,3.18.86l-1,1.73,1.78,1,1-1.72a10.26,10.26,0,0,1,2.33,2.32l-1.72,1,1,1.77,1.73-1a10.26,10.26,0,0,1,.85,3.18h-2v2h2a10.26,10.26,0,0,1-.85,3.18l-1.73-1-1,1.77,1.72,1a10.26,10.26,0,0,1-2.33,2.32Z"/><path class="cls-1" d="M48.42,25.29l1.45-1.44L54,27.94l-1.44,1.45Z"/><path class="cls-1" d="M7.47,21.2l1.45-1.45L13,23.85l-1.44,1.44Z"/><path class="cls-1" d="M57.74,36a14.32,14.32,0,0,1-16.64.39,1,1,0,0,0-1.1,0,18.41,18.41,0,0,1-18.57,0,1,1,0,0,0-1.09,0,14.34,14.34,0,0,1-16.62-.37,1,1,0,0,0-.64-.23H0v2.05H2.74A16.39,16.39,0,0,0,21,38.47a20.45,20.45,0,0,0,19.53,0,16.41,16.41,0,0,0,18.22-.59h2.73V35.83H58.36a1,1,0,0,0-.62.21Z"/><path class="cls-1" d="M58.7,11.26a16.3,16.3,0,0,0-9.56-3.07h-2a20.48,20.48,0,0,0-32.76,0H12.29a16.27,16.27,0,0,0-9.55,3.07H0v2.05H3.07a1,1,0,0,0,.62-.21,14.27,14.27,0,0,1,8.6-2.86h2.57a1,1,0,0,0,.83-.43,18.43,18.43,0,0,1,30.05,0,1,1,0,0,0,.84.43h2.56a14.22,14.22,0,0,1,8.6,2.86,1,1,0,0,0,.62.21h3.07V11.26Z"/></g></g></svg>