<svg xmlns="http://www.w3.org/2000/svg" viewBox="0 0 61.6 61.6"><defs><style>.cls-1{fill:#bf2026;}</style></defs><g id="Layer_2" data-name="Layer 2"><g id="Layer_1-2" data-name="Layer 1"><path class="cls-1" d="M52.52,9.08A30.72,30.72,0,1,0,61.6,30.83,30.77,30.77,0,0,0,52.52,9.08Zm-1.45,42a28.67,28.67,0,1,1,0-40.54,28.67,28.67,0,0,1,0,40.54Z"/><path class="cls-1" d="M30.8,6.23A24.57,24.57,0,1,0,55.37,30.8,24.6,24.6,0,0,0,30.8,6.23Zm0,2A22.56,22.56,0,0,1,52.54,24.9a56.62,56.62,0,0,0-43.48,0A22.56,22.56,0,0,1,30.8,8.28ZM8.65,34.89h2.7A15.36,15.36,0,0,1,26.7,50.25V53a22.59,22.59,0,0,1-18-18.06Zm20.1,18.34v-3a17.42,17.42,0,0,0-17.4-17.4h-3c-.06-.68-.09-1.36-.09-2.05a22,22,0,0,1,.26-3.44,54.53,54.53,0,0,1,44.52,0,23.33,23.33,0,0,1,.26,3.44c0,.69,0,1.37-.09,2.05h-3a17.41,17.41,0,0,0-17.4,17.4v3c-.68.06-1.36.09-2.05.09s-1.37,0-2.05-.09ZM34.89,53v-2.7A15.38,15.38,0,0,1,50.25,34.89H53A22.59,22.59,0,0,1,34.89,53Z"/><path class="cls-1" d="M36.94,30.8a6.14,6.14,0,1,0-6.14,6.14,6.13,6.13,0,0,0,6.14-6.14Zm-10.24,0a4.1,4.1,0,1,1,4.1,4.09,4.08,4.08,0,0,1-4.1-4.09Z"/><rect class="cls-1" x="18.51" y="26.7" width="2.05" height="2.05"/><rect class="cls-1" x="14.42" y="28.75" width="2.05" height="2.05"/><rect class="cls-1" x="18.51" y="30.8" width="2.05" height="2.05"/><rect class="cls-1" x="41.04" y="30.8" width="2.05" height="2.05"/><rect class="cls-1" x="45.13" y="28.75" width="2.05" height="2.05"/><rect class="cls-1" x="41.04" y="26.7" width="2.05" height="2.05"/></g></g></svg>