<svg xmlns="http://www.w3.org/2000/svg" viewBox="0 0 54 60"><defs><style>.cls-1{fill:#bf2026;}</style></defs><g id="Layer_2" data-name="Layer 2"><g id="Layer_1-2" data-name="Layer 1"><path class="cls-1" d="M26.84,41.83,21,40.23v-1.5A7,7,0,0,0,24,33V32a1,1,0,0,0,1-1V28A8,8,0,0,0,9,28v3a1,1,0,0,0,1,1v1a7,7,0,0,0,3,5.74v1.5L7.15,41.83A7,7,0,0,0,2,48.58V59a1,1,0,0,0,1,1H31a1,1,0,0,0,1-1V48.58a7,7,0,0,0-5.16-6.75ZM11,28a6,6,0,0,1,12,0v2h-.66a2,2,0,0,1-1.94-1.52L20,26.76A1,1,0,0,0,19.2,26L19,26a1,1,0,0,0-.8.4l-.6.8A7.05,7.05,0,0,1,12,30H11Zm1,5V32a9,9,0,0,0,6.52-2.8A4,4,0,0,0,22,32v1a5,5,0,0,1-10,0Zm5,7a6.78,6.78,0,0,0,2-.3V41a1,1,0,0,0,.35.74L17,43.7l-2.35-2A1,1,0,0,0,15,41V39.7a6.78,6.78,0,0,0,2,.3ZM30,58H27V49H25v9H9V49H7v9H4V48.58a5,5,0,0,1,3.68-4.83l4.72-1.28,4,3.3a1,1,0,0,0,1.28,0l4-3.3,4.71,1.28A5,5,0,0,1,30,48.58Z"/><path class="cls-1" d="M27,29v2a8,8,0,1,0-6.57-12.57l1.65,1.14A6,6,0,1,1,27,29Z"/><path class="cls-1" d="M51,0H3A3,3,0,0,0,0,3V35a3,3,0,0,0,3,3H9V36H3a1,1,0,0,1-1-1V11a1,1,0,0,1,1-1H51a1,1,0,0,1,1,1V35a1,1,0,0,1-1,1H25v2H51a3,3,0,0,0,3-3V3a3,3,0,0,0-3-3ZM3,2H51a1,1,0,0,1,1,1V4.18A3.1,3.1,0,0,0,51,4H3a3.1,3.1,0,0,0-1,.18V3A1,1,0,0,1,3,2ZM51,8H3a3.1,3.1,0,0,0-1,.18V7A1,1,0,0,1,3,6H51a1,1,0,0,1,1,1V8.18A3.1,3.1,0,0,0,51,8Z"/><path class="cls-1" d="M11,14H7a1,1,0,0,0-1,1v4H8V16h3Z"/><path class="cls-1" d="M48,19V15a1,1,0,0,0-1-1H43v2h3v3Z"/><path class="cls-1" d="M43,32h4a1,1,0,0,0,1-1V27H46v3H43Z"/><rect class="cls-1" x="38" y="22" width="2" height="2"/></g></g></svg>