<svg xmlns="http://www.w3.org/2000/svg" viewBox="0 0 68.66 48.53"><defs><style>.cls-1{fill:#bf2026;}</style></defs><g id="Layer_2" data-name="Layer 2"><g id="Layer_1-2" data-name="Layer 1"><path class="cls-1" d="M68.58,22.6a4.4,4.4,0,0,0-.9-1.9l-8.5-10.26a4.26,4.26,0,0,0-3.3-1.55H53.8a1,1,0,0,0,0,2h2.08a2.27,2.27,0,0,1,1.75.82l.8,1H53.57A2.66,2.66,0,0,0,51,15.4v5.69a2.66,2.66,0,0,0,2.6,2.71H66.65V38.72a1.41,1.41,0,0,1-1.41,1.41h-.73a7.27,7.27,0,0,0-14.36,0h-3V28.71h0V11.44a.55.55,0,0,1,.55-.54h2.09a1,1,0,1,0,0-2H47.69a3.31,3.31,0,0,0-.55,0V2.35A2.35,2.35,0,0,0,44.79,0H12a1,1,0,1,0,0,2H44.79a.34.34,0,0,1,.34.34V27.7H2V2.35A.34.34,0,0,1,2.35,2H8A1,1,0,1,0,8,0H2.35A2.35,2.35,0,0,0,0,2.35V37.14a5,5,0,0,0,5,5h5.05a7.27,7.27,0,0,0,14.43,0h7.85a1,1,0,0,0,0-2H24.44c-1.27-8.1-13.07-8.16-14.35,0H5a3,3,0,0,1-3-3v-.09h2.5a2.74,2.74,0,0,0,2-.81,2.77,2.77,0,0,0-2-4.72H2v-1.8H45.13V40.13H36.35a1,1,0,1,0,0,2H50.12a7.27,7.27,0,0,0,14.43,0h.69a3.43,3.43,0,0,0,3.42-3.42c0-16.67,0-15.54-.08-16.12Zm-15-.81a.65.65,0,0,1-.59-.7V15.4a.65.65,0,0,1,.59-.7h6.52L66,21.79ZM22.4,40.13a5.3,5.3,0,0,1,.13,1.14,5.26,5.26,0,0,1-10.52,0c0-6.38,9.17-7.09,10.39-1.13ZM4.51,33.53A.75.75,0,0,1,5,34.82c-.28.29-.33.22-3,.22V33.53Zm58.08,7.74a5.25,5.25,0,1,1-9.89-2.48,5.25,5.25,0,0,1,9.89,2.48Z"/><path class="cls-1" d="M17.27,45.3a4,4,0,1,0-3.87-5.17A4,4,0,0,0,17.27,45.3ZM15.6,40.13a2,2,0,1,1,1.67,3.16A2,2,0,0,1,15.6,40.13Z"/><path class="cls-1" d="M53.47,40.13a4,4,0,1,0,7.9,1.14,4,4,0,0,0-7.9-1.14Zm5.69,2a2,2,0,1,1-1.83-2.9,2,2,0,0,1,1.83,2.9Z"/><path class="cls-1" d="M55.42,27.49a1,1,0,1,0,0-2H52.09a1,1,0,1,0,0,2Z"/></g></g></svg>