<svg xmlns="http://www.w3.org/2000/svg" viewBox="0 0 55.56 50"><defs><style>.cls-1{fill:#bf2026;}</style></defs><g id="Layer_2" data-name="Layer 2"><g id="Layer_1-2" data-name="Layer 1"><path class="cls-1" d="M51.85,17.59h-.21a24.93,24.93,0,0,0-4.24-8h0a25,25,0,0,0-39.23,0h0a24.91,24.91,0,0,0-4.23,8.05H3.7A3.71,3.71,0,0,0,0,21.3v7.4a3.71,3.71,0,0,0,3.7,3.71h.22a24.91,24.91,0,0,0,4.23,8.05h0a25,25,0,0,0,39.23,0h0a24.93,24.93,0,0,0,4.24-8.05h.21a3.72,3.72,0,0,0,3.71-3.71V21.3A3.72,3.72,0,0,0,51.85,17.59Zm-5.58-6.48a23,23,0,0,1,3.42,6.48H39.27a41.3,41.3,0,0,0-1.44-6.48ZM44.72,9.26H37.19a19.29,19.29,0,0,0-4.11-6.78A23.3,23.3,0,0,1,44.72,9.26ZM28.7,2c2.47.55,4.77,3.24,6.46,7.3H28.7Zm0,9.15h7.15a38.48,38.48,0,0,1,1.55,6.48H28.7V11.11ZM26.85,2v7.3H20.39C22.08,5.2,24.39,2.51,26.85,2Zm0,9.15v6.48H18.16a38.5,38.5,0,0,1,1.54-6.48ZM22.48,2.48a19.45,19.45,0,0,0-4.12,6.78H10.83A23.29,23.29,0,0,1,22.48,2.48ZM9.29,11.11h8.44a41.3,41.3,0,0,0-1.44,6.48H5.87A22.71,22.71,0,0,1,9.29,11.11Zm0,27.78a22.71,22.71,0,0,1-3.42-6.48H16.29a41.3,41.3,0,0,0,1.44,6.48Zm1.54,1.85h7.53a19.45,19.45,0,0,0,4.12,6.78A23.29,23.29,0,0,1,10.83,40.74Zm16,7.3c-2.46-.55-4.77-3.24-6.46-7.3h6.46V48Zm0-9.15H19.7a38.5,38.5,0,0,1-1.54-6.48h8.69ZM28.7,48v-7.3h6.46C33.47,44.8,31.17,47.49,28.7,48Zm0-9.15V32.41h8.7a38.48,38.48,0,0,1-1.55,6.48Zm4.38,8.63a19.29,19.29,0,0,0,4.11-6.78h7.53A23.3,23.3,0,0,1,33.08,47.52Zm13.19-8.63H37.83a41.3,41.3,0,0,0,1.44-6.48H49.69A23,23,0,0,1,46.27,38.89ZM53.7,28.7a1.85,1.85,0,0,1-1.85,1.86H3.7A1.85,1.85,0,0,1,1.85,28.7V21.3A1.85,1.85,0,0,1,3.7,19.44H51.85A1.85,1.85,0,0,1,53.7,21.3v7.4Z"/><path class="cls-1" d="M18.81,21.34a.93.93,0,0,0-1.17.59l-1.22,3.65-1.74-2.91a1,1,0,0,0-1.58,0l-1.75,2.91-1.21-3.65A.93.93,0,0,0,9,21.34a.94.94,0,0,0-.59,1.18l1.85,5.55a.93.93,0,0,0,1.68.18l2-3.3,2,3.3a.91.91,0,0,0,.8.45h.1a.94.94,0,0,0,.78-.63l1.85-5.55A.94.94,0,0,0,18.81,21.34Z"/><path class="cls-1" d="M32.7,21.34a.92.92,0,0,0-1.17.59l-1.22,3.65-1.74-2.91a1,1,0,0,0-1.59,0l-1.74,2.91L24,21.93a.93.93,0,1,0-1.76.59l1.85,5.55a.94.94,0,0,0,.78.63.93.93,0,0,0,.89-.45l2-3.3,2,3.3a.91.91,0,0,0,.8.45h.1a.92.92,0,0,0,.77-.63l1.86-5.55A.94.94,0,0,0,32.7,21.34Z"/><path class="cls-1" d="M46.59,21.34a.92.92,0,0,0-1.17.59L44.2,25.58l-1.74-2.91a1,1,0,0,0-1.59,0l-1.74,2.91-1.21-3.65a.93.93,0,1,0-1.76.59L38,28.07a.92.92,0,0,0,1.67.18l2-3.3,2,3.3a.91.91,0,0,0,.79.45h.11a.93.93,0,0,0,.77-.63l1.85-5.55A.93.93,0,0,0,46.59,21.34Z"/></g></g></svg>