<svg xmlns="http://www.w3.org/2000/svg" viewBox="0 0 61.42 61.42"><defs><style>.cls-1{fill:#bf2026;}</style></defs><g id="Layer_2" data-name="Layer 2"><g id="Layer_1-2" data-name="Layer 1"><path class="cls-1" d="M15.94,48.14l-1.69-1-1-1.7A1,1,0,0,0,12.12,45l-1.88.52L8.35,45a1,1,0,0,0-1.16.48l-1,1.7-1.7,1a1,1,0,0,0-.48,1.17l.52,1.88-.52,1.88a1,1,0,0,0,.48,1.16l1.7,1,1,1.7a1,1,0,0,0,1.17.48l1.88-.52,1.88.52a1,1,0,0,0,1.16-.48l1-1.7,1.69-1a1,1,0,0,0,.49-1.16l-.52-1.88.52-1.88a1,1,0,0,0-.49-1.17Zm-2.08,3.32.38,1.39L13,53.56a1.09,1.09,0,0,0-.39.38l-.7,1.25-1.39-.38a1,1,0,0,0-.55,0l-1.38.38-.71-1.25a1,1,0,0,0-.39-.38l-1.25-.71.39-1.39a1,1,0,0,0,0-.54l-.39-1.39,1.25-.71a1,1,0,0,0,.39-.38l.71-1.25,1.38.38a1,1,0,0,0,.55,0l1.39-.38.7,1.25a1.09,1.09,0,0,0,.39.38l1.25.71-.38,1.39a1,1,0,0,0,0,.54Z"/><path class="cls-1" d="M38.3,28.67l9-9a10.12,10.12,0,0,0,3.92.78A10.23,10.23,0,0,0,61,7.27a1,1,0,0,0-1.7-.43l-4.72,4.72a3.32,3.32,0,0,1-4.7-4.69l4.73-4.73a1,1,0,0,0,.27-1,1,1,0,0,0-.7-.73,10.24,10.24,0,0,0-12.71,13l-9.2,9.2L29.9,20.26a1,1,0,0,0-.72-.3,1,1,0,0,0-.73.3l-3.37,3.38L8.34,6.89l.82-2.47a1,1,0,0,0-.44-1.2L3.6.15A1,1,0,0,0,2.35.3L.3,2.35A1,1,0,0,0,.15,3.6L3.22,8.72a1,1,0,0,0,1.2.44l2.47-.82L23.63,25.08l-3.37,3.37a1.06,1.06,0,0,0-.3.73,1,1,0,0,0,.3.72l2.35,2.35-9.2,9.2a10.24,10.24,0,1,0,6.29,5.82l9-9L50,59.68a3.07,3.07,0,0,0,4.34,0l5.3-5.3a3.08,3.08,0,0,0,0-4.34ZM4.55,7,2.31,3.23l.92-.92L7,4.55l-.6,1.81Zm39,6.33a8.18,8.18,0,0,1,7.6-11.24l.58,0L48.42,5.42A5.37,5.37,0,0,0,56,13l3.35-3.35c0,.19,0,.38,0,.58a8.2,8.2,0,0,1-11.87,7.32,1,1,0,0,0-1.18.19l-9.57,9.56a3.12,3.12,0,0,0-2.88,0L32.16,25.6l11.2-11.21a1,1,0,0,0,.23-1.1ZM28.66,32.34,27,30.71,30.71,27l1.63,1.63Zm-6.23-3.16,6.75-6.74,1.62,1.62L24.06,30.8ZM17.55,47.51A8.18,8.18,0,0,1,12.64,59a8.19,8.19,0,1,1,.65-15.43,1,1,0,0,0,1.1-.23l11.2-11.2,1.72,1.72a3.12,3.12,0,0,0,0,2.88l-9.56,9.57a1,1,0,0,0-.2,1.18Zm40.68,5.43-2.95,2.94L36,36.64,34.6,38.09,53.83,57.33l-.9.9a1,1,0,0,1-1.44,0L29.3,36a1,1,0,0,1,0-1.44l5.3-5.3a1,1,0,0,1,1.44,0L58.23,51.49a1,1,0,0,1,0,1.45Z"/></g></g></svg>